<?xml version="1.0" encoding="UTF-8"?><svg xmlns="http://www.w3.org/2000/svg" viewBox="0 0 1157 1157"><g id="a"><circle cx="568.91" cy="563.5" r="512" fill="#998eff"/></g><g id="b"><path d="M470.85,685.4c42.96-6.81,72.31-45.91,68.11-88.64-4.58-46.66-48.34-79.92-94.61-72.37-44.41,7.25-74.15,49.04-67.1,93.53,7.62,44.62,49.52,74.55,93.6,67.48h0ZM684.16,685.4c42.96-6.81,72.31-45.91,68.11-88.64-4.58-46.66-48.34-79.92-94.61-72.37-44.41,7.25-74.15,49.04-67.1,93.53,7.07,44.62,48.97,74.55,93.6,67.48h0Z" fill="#fff"/><path d="M565.45,248.57c-220.76,0-399.89,181.67-401.04,405.95,0,1.19.97,2.17,2.16,2.17h98.01c1.18,0,2.13-.95,2.14-2.13,1.11-168.25,133.46-303.68,298.19-303.68s297.08,135.97,298.19,303.68c0,1.18.96,2.13,2.14,2.13h98.02c1.19,0,2.16-.97,2.16-2.16-.06-224.29-179.2-405.96-399.96-405.96h0Z" fill="#fff"/></g></svg>