<?xml version="1.0" encoding="UTF-8"?><svg xmlns="http://www.w3.org/2000/svg" viewBox="0 0 1157 1157"><g id="a"><circle cx="568.91" cy="563.5" r="512" fill="#e84142"/></g><g id="b"><path d="M396.71,825.82h-122.75c-25.79,0-38.53,0-46.3-4.97-8.39-5.44-13.52-14.45-14.14-24.4-.47-9.16,5.9-20.35,18.64-42.73L535.24,219.52c12.9-22.68,19.42-34.03,27.66-38.22,8.86-4.51,19.42-4.51,28.28,0,8.23,4.19,14.76,15.54,27.66,38.22l62.31,108.76.32.55c13.93,24.34,20.99,36.68,24.08,49.63,3.42,14.14,3.42,29.06,0,43.19-3.11,13.05-10.1,25.48-24.24,50.19l-159.2,281.42-.41.72c-14.02,24.54-21.13,36.97-30.97,46.36-10.72,10.26-23.62,17.71-37.76,21.91-12.9,3.57-27.35,3.57-56.25,3.57ZM706.68,825.82h175.88c25.95,0,39,0,46.77-5.12,8.39-5.44,13.67-14.61,14.14-24.55.45-8.87-5.79-19.62-18-40.7-.42-.72-.84-1.45-1.27-2.19l-88.1-150.71-1-1.7c-12.38-20.93-18.63-31.51-26.65-35.59-8.85-4.51-19.27-4.51-28.12,0-8.08,4.19-14.61,15.23-27.5,37.44l-87.79,150.71-.3.52c-12.85,22.18-19.27,33.27-18.81,42.36.62,9.95,5.75,19.11,14.14,24.55,7.61,4.97,20.67,4.97,46.61,4.97Z" fill="#fff" fill-rule="evenodd"/></g></svg>