<?xml version="1.0" encoding="UTF-8"?><svg xmlns="http://www.w3.org/2000/svg" viewBox="0 0 1157 1157"><g id="a"><circle cx="568.91" cy="563.5" r="512" fill="#00d395"/></g><g id="b"><path d="M256.91,601.11v126.25c0,24.73,12.83,47.68,33.89,60.63l278.83,171.38c15.18,9.18,34.93,4.32,44.11-10.86,3-4.96,4.6-10.64,4.64-16.44v-139.01c-.03-18.12-9.69-34.86-25.38-43.93l-294.65-171.78c-13.14-7.67-30.01-3.24-37.68,9.89-2.46,4.21-3.76,9-3.76,13.88Z" fill="#fff"/><path d="M391.67,390.78v173.23l265.02,159.41c12.21,7.33,19.68,20.53,19.68,34.77v160.14l76.94-45.21v-286.7c0-17.96-9.54-34.57-25.06-43.61l-298.59-173.87c-12.09-7.01-27.57-2.89-34.57,9.2-2.23,3.84-3.41,8.21-3.41,12.65Z" fill="#fff"/><path d="M520.24,186.55v169.77l267.35,159.89c12.2,7.34,19.66,20.54,19.68,34.77v289.75l65.93-38.55c3.86-2.25,6.24-6.37,6.26-10.84l1.45-407.09c-.02-17.89-9.52-34.43-24.98-43.45l-300.11-174.91c-11.7-6.35-26.32-2.01-32.67,9.69-1.83,3.37-2.83,7.12-2.91,10.95Z" fill="#fff"/></g></svg>