<?xml version="1.0" encoding="UTF-8"?><svg xmlns="http://www.w3.org/2000/svg" viewBox="0 0 1157 1157"><g id="a"><circle cx="568.91" cy="563.5" r="512" fill="#019bc6"/></g><g id="b"><path d="M633.57,476.74h74.55v75.87h37.61c17.15,0,34.97-3.3,51.46-8.58,7.92-2.64,17.15-6.6,25.07-11.22-10.56-13.86-15.83-31.01-17.15-48.16-1.98-23.09,2.64-53.44,18.47-71.26l7.92-9.24,9.24,7.26c23.75,19.13,42.89,44.86,46.84,75.21,28.37-8.58,61.36-6.6,86.43,7.92l9.9,5.94-5.28,10.56c-21.11,40.91-65.32,54.1-108.2,51.46-64.66,160.33-204.53,236.2-374.75,236.2-87.75,0-168.24-32.99-214.43-110.84l-.66-1.32-6.6-13.86c-15.83-34.31-20.45-71.92-17.15-109.52l1.32-11.22h63.34v-75.21h74.55v-73.9h148.45v-74.55h89.07v148.45Z" fill="#3a4d54" fill-rule="evenodd"/><path d="M875.05,505.11c5.28-38.93-23.75-69.28-42.23-83.79-20.45,23.75-23.75,87.09,8.58,113.48-18.47,15.83-56.08,31.01-95.67,31.01h-476.36c-3.96,40.91,3.3,78.51,19.79,110.84l5.28,9.9c3.3,5.94,7.26,11.22,11.22,17.15,19.79,1.32,37.61,1.98,54.1,1.32,32.33-.66,58.72-4.62,79.17-11.22,3.3-1.32,5.94.66,7.26,3.3,1.32,3.3-.66,5.94-3.3,7.26-2.64.66-5.28,1.98-8.58,2.64-15.83,4.62-32.99,7.26-54.76,8.58h-3.96c-8.58.66-17.81.66-27.71.66-10.56,0-20.45,0-32.33-.66,39.59,44.86,101.61,71.26,179.46,71.26,164.94,0,304.82-73.24,366.18-236.86,44.21,4.62,86.43-6.6,105.56-44.21-29.69-17.81-69.28-11.88-91.71-.66Z" fill="#fff"/><path d="M875.05,505.11c5.28-38.93-23.75-69.28-42.23-83.79-20.45,23.75-23.75,87.09,8.58,113.48-18.47,15.83-56.08,31.01-95.67,31.01h-448.65c-1.98,62.68,21.11,110.18,62.68,138.55,32.33-.66,58.72-4.62,79.17-11.22,3.3-1.32,5.94.66,7.26,3.3,1.32,3.3-.66,5.94-3.3,7.26-2.64.66-5.28,1.98-8.58,2.64-15.83,4.62-34.31,7.92-56.08,9.24l-.66-.66c56.08,29.03,137.23,28.37,230.92-7.26,104.24-40.25,201.89-116.78,269.85-203.87-1.32.66-2.64.66-3.3,1.32Z" fill="#fff"/><path d="M270.03,615.29c2.64,21.77,9.24,42.23,19.13,61.36l5.28,9.9c3.3,5.94,7.26,11.22,11.22,17.15,19.79,1.32,37.61,1.98,54.1,1.32,32.33-.66,58.72-4.62,79.17-11.22,3.3-1.32,5.94.66,7.26,3.3,1.32,3.3-.66,5.94-3.3,7.26-2.64.66-5.28,1.98-8.58,2.64-15.83,4.62-34.31,7.92-56.08,9.24h-2.64c-8.58.66-17.81.66-27.05.66-10.56,0-21.11,0-32.33-.66,39.59,44.86,102.27,71.26,180.12,71.26,141.19,0,263.91-53.44,335.17-171.54H270.03v-.66Z" fill="#fff"/><path d="M301.7,615.29c8.58,38.27,28.37,68.62,58.06,89.07,32.33-.66,58.72-4.62,79.17-11.22,3.3-1.32,5.94.66,7.26,3.3,1.32,3.3-.66,5.94-3.3,7.26-2.64.66-5.28,1.98-8.58,2.64-15.83,4.62-34.31,7.92-56.74,9.24,56.08,29.03,137.23,28.37,230.26-7.26,56.08-21.77,110.84-54.1,159.67-93.03,0,0-465.8,0-465.8,0Z" fill="#019bc6"/><path d="M334.03,489.28h64.66v64.66h-64.66s0-64.66,0-64.66ZM339.31,494.55h5.28v53.44h-5.28v-53.44ZM348.55,494.55h5.28v53.44h-5.28v-53.44ZM358.44,494.55h5.28v53.44h-5.28v-53.44ZM368.34,494.55h5.28v53.44h-5.28v-53.44ZM378.24,494.55h5.28v53.44h-5.28v-53.44ZM388.13,494.55h5.28v53.44h-5.28v-53.44ZM407.93,415.38h64.66v64.66h-64.66v-64.66ZM413.86,420.66h5.28v53.44h-5.28v-53.44ZM423.1,420.66h5.28v53.44h-5.28v-53.44ZM433,420.66h5.28v53.44h-5.28v-53.44ZM442.89,420.66h5.28v53.44h-5.28v-53.44ZM452.13,420.66h5.28v53.44h-5.28v-53.44ZM462.03,420.66h5.28v53.44h-5.28v-53.44Z" fill="#fff" fill-rule="evenodd"/><path d="M407.93,489.28h64.66v64.66h-64.66v-64.66ZM413.86,494.55h5.28v53.44h-5.28v-53.44ZM423.1,494.55h5.28v53.44h-5.28v-53.44ZM433,494.55h5.28v53.44h-5.28v-53.44ZM442.89,494.55h5.28v53.44h-5.28v-53.44ZM452.13,494.55h5.28v53.44h-5.28v-53.44ZM462.03,494.55h5.28v53.44h-5.28v-53.44Z" fill="#fff" fill-rule="evenodd"/><path d="M482.48,489.28h64.66v64.66h-64.66v-64.66ZM487.76,494.55h5.28v53.44h-5.28v-53.44ZM497.65,494.55h5.28v53.44h-5.28v-53.44ZM507.55,494.55h5.28v53.44h-5.28v-53.44ZM516.79,494.55h5.28v53.44h-5.28v-53.44ZM526.69,494.55h5.28v53.44h-5.28v-53.44ZM536.58,494.55h5.28v53.44h-5.28v-53.44Z" fill="#fff" fill-rule="evenodd"/><path d="M482.48,415.38h64.66v64.66h-64.66v-64.66ZM487.76,420.66h5.28v53.44h-5.28v-53.44ZM497.65,420.66h5.28v53.44h-5.28v-53.44ZM507.55,420.66h5.28v53.44h-5.28v-53.44ZM516.79,420.66h5.28v53.44h-5.28v-53.44ZM526.69,420.66h5.28v53.44h-5.28v-53.44ZM536.58,420.66h5.28v53.44h-5.28v-53.44ZM557.03,489.28h64.66v64.66h-64.66v-64.66ZM562.31,494.55h5.28v53.44h-5.28v-53.44ZM572.21,494.55h5.28v53.44h-5.28v-53.44ZM581.45,494.55h5.28v53.44h-5.28v-53.44ZM591.34,494.55h5.28v53.44h-5.28v-53.44ZM601.24,494.55h5.28v53.44h-5.28v-53.44ZM611.14,494.55h5.28v53.44h-5.28v-53.44Z" fill="#fff" fill-rule="evenodd"/><path d="M557.03,415.38h64.66v64.66h-64.66v-64.66ZM562.31,420.66h5.28v53.44h-5.28v-53.44ZM572.21,420.66h5.28v53.44h-5.28v-53.44ZM581.45,420.66h5.28v53.44h-5.28v-53.44ZM591.34,420.66h5.28v53.44h-5.28v-53.44ZM601.24,420.66h5.28v53.44h-5.28v-53.44ZM611.14,420.66h5.28v53.44h-5.28v-53.44Z" fill="#fff" fill-rule="evenodd"/><path d="M557.03,340.83h64.66v64.66h-64.66v-64.66ZM562.31,346.1h5.28v53.44h-5.28v-53.44ZM572.21,346.1h5.28v53.44h-5.28v-53.44ZM581.45,346.1h5.28v53.44h-5.28v-53.44ZM591.34,346.1h5.28v53.44h-5.28v-53.44ZM601.24,346.1h5.28v53.44h-5.28v-53.44ZM611.14,346.1h5.28v53.44h-5.28v-53.44Z" fill="#fff" fill-rule="evenodd"/><path d="M631.59,489.28h64.66v64.66h-64.66v-64.66ZM636.87,494.55h5.28v53.44h-5.28v-53.44ZM646.1,494.55h5.28v53.44h-5.28v-53.44ZM656,494.55h5.28v53.44h-5.28v-53.44ZM665.9,494.55h5.28v53.44h-5.28v-53.44ZM675.79,494.55h5.28v53.44h-5.28v-53.44ZM685.69,494.55h5.28v53.44h-5.28v-53.44Z" fill="#fff" fill-rule="evenodd"/><path d="M468.62,658.18c9.9,0,17.81,7.92,17.81,17.81s-7.92,17.81-17.81,17.81-17.81-7.92-17.81-17.81,7.92-17.81,17.81-17.81" fill="#d4eef1" fill-rule="evenodd"/><path d="M468.62,663.46c1.32,0,3.3,0,4.62.66-1.32.66-2.64,2.64-2.64,4.62,0,2.64,2.64,5.28,5.28,5.28,1.98,0,3.96-1.32,4.62-2.64.66,1.32.66,3.3.66,4.62,0,7.26-5.94,12.54-12.54,12.54-7.26,0-12.54-5.94-12.54-12.54s5.28-12.54,12.54-12.54M153.91,621.89h827.36c-17.81-4.62-56.74-10.56-50.8-34.31-32.99,37.61-111.5,26.39-131.96,7.92-22.43,32.33-151.75,19.79-160.33-5.28-27.71,32.99-114.14,32.99-141.85,0-9.24,25.07-138.55,37.61-160.33,5.28-19.79,18.47-98.97,29.69-131.96-7.92,7.26,23.09-32.33,29.69-50.14,34.31" fill="#3a4d54" fill-rule="evenodd"/><path d="M516.13,786.83c-44.21-21.11-67.96-49.48-81.81-80.49-16.49,4.62-36.29,7.92-58.72,9.24-8.58.66-17.81.66-27.05.66-11.22,0-22.43,0-34.31-.66,39.59,39.59,89.73,70.6,181.44,71.26,0,0,20.45,0,20.45,0Z" fill="#fff"/><path d="M450.81,734.71c-5.94-8.58-11.88-18.47-16.49-28.37-16.49,4.62-36.29,7.92-58.72,9.24,15.17,7.92,37.61,15.83,75.21,19.13Z" fill="#d4eef1"/></g></svg>