<?xml version="1.0" encoding="UTF-8"?><svg xmlns="http://www.w3.org/2000/svg" viewBox="0 0 1157 1157"><g id="a"><circle cx="568.91" cy="563.5" r="512" fill="#141414"/></g><g id="b"><g id="c"><g id="d"><polygon points="559.25 144.04 553.79 162.59 553.79 701 559.25 706.46 809.17 558.73 559.25 144.04" fill="#686868"/><polygon points="559.97 144.04 310.04 558.73 559.97 706.46 559.97 445.12 559.97 144.04" fill="#cecece"/><polygon points="563.05 734.6 559.97 738.35 559.97 930.14 563.05 939.13 813.12 586.94 563.05 734.6" fill="#686868"/><polygon points="559.97 939.13 559.97 734.6 310.04 586.94 559.97 939.13" fill="#cecece"/><polygon points="556.52 706.46 806.44 558.73 556.52 445.12 556.52 706.46" fill="#333"/><polygon points="310.04 558.73 559.97 706.46 559.97 445.12 310.04 558.73" fill="#757575"/></g></g></g></svg>