<?xml version="1.0" encoding="UTF-8"?><svg xmlns="http://www.w3.org/2000/svg" viewBox="0 0 1157 1157"><g id="a"><circle cx="568.91" cy="563.5" r="512"/></g><g id="b"><path d="M575.35,728.84s33.02,63.44-10.74,70.86c0,0-16.26,1.89-15.03-53.68,0,0-23.62,6.44-21.47,47.24,0,0,25.04,59.61-19.88,35.95,0,0-11.08-8.19-1.59-27.36,0,0-4.29-17.18-15.03,2.15s-11.1,57.07,19.33,88.04,97.35,20.44,120.25-8.59,20.83-47.78,21.47-64.42c0,0-17.24,43.19-38.65,12.88,0,0,32.39-74.14-38.65-103.07Z" fill="#fff"/><path d="M586.09,606.44l139.57,118.1s-32.61,26.18-34.36,42.94,30.39,62.49,68.71,82.98l120.3-145.25-62.33-47.24-40.8-1.43-27.91,35.78-137.42-111.66,122.39-105.21-10.74-10.74-124.54,103.07-17.18-17.18,128.83-98.77-11.62-12.88-132.25,96.63-122.39-96.63s-29.92,7.12-23.62,34.71l105.21,85.53-85.89,68.71s-32.21,15.03-36.5,53.68l-4.29,8.59v38.65s-4.05-1.27-4.29,12.88c0,0-8.59,17.18-32.21,10.74s-4.29,0-4.29,0l-17.18,8.59-21.47,17.18s2.15,25.77-21.47,12.88l-10.74,6.44s2.15,6.44,10.74,10.74,19.9,6.58,40.8-15.03l30.06-17.18s39.98,14.69,57.98-62.27l27.91-32.21s8.59-17.75,8.59-28.2,77.3-74.87,77.3-74.87l-6.44-6.44,6.44-2.15,27.91,23.62s-7.07,2.78-12.12,3.54-29.14,16.81-37.26,28.67-47.24,28.03-49.39,36.5-19.33,36.5-19.33,36.5l30.06,2.15,105.21-94.48Z" fill="#fff"/><path d="M399.28,675.16s-4.05,8.38-4.29,19.33-8.92,6.44-8.92,6.44c0,0-21.14-10.74-29.73-2.15s-10.74,19.33-10.74,19.33c0,0-3.06,13.49,2.15,19.33l-19.33,19.33-15.03,10.74-10.74,2.15s-12.88-12.88-10.74,10.74l-8.59,8.59-6.44-6.44s-11.6-16.22,8.59-25.77l17.18-12.88,17.18-12.88s6.56,3.38,6.44-15.03c0,0,2.15-27.91,15.03-32.21s19.33-6.44,19.33-6.44c0,0,34.36-4.29,38.65-2.15Z" fill="#fff"/><path d="M249.43,523.35l4.75,1.19c.83.21,1.66.38,2.5.52l24.51,4.08s94.54,10.24,62.27,36.5c0,0-71.04,26.48-102.09,32.95-5.77,1.2-11.75-.59-15.88-4.79l-.5-.51c-3.89-3.96-6.06-9.28-6.06-14.83v-29.94c0-8.17,3.77-15.88,10.22-20.89h0c5.75-4.47,13.23-6.05,20.3-4.28Z" fill="#fff"/><path d="M283.22,431.91l3.91,2.94c.68.51,1.38.99,2.1,1.45l20.99,13.29s83.13,46.18,43.19,57.84c0,0-75.75-3.21-106.87-9.32-5.78-1.14-10.6-5.11-12.77-10.59l-.26-.67c-2.04-5.16-1.98-10.91.18-16.02l11.64-27.58c3.17-7.53,9.65-13.16,17.54-15.28h0c7.03-1.89,14.55-.43,20.37,3.94Z" fill="#fff"/><path d="M334.12,352.83l2.88,3.96c.5.69,1.03,1.36,1.58,2l16.17,18.86s65.93,68.53,24.32,67.96c0,0-71.48-25.29-99.44-40.26-5.2-2.78-8.64-7.99-9.1-13.87l-.06-.72c-.44-5.53,1.31-11.01,4.87-15.26l19.21-22.96c5.24-6.26,13.08-9.76,21.25-9.46h0c7.28.26,14.03,3.85,18.32,9.74Z" fill="#fff"/><path d="M412.8,299.1l2.1,4.42c.37.77.76,1.52,1.19,2.26l12.42,21.52s52.18,79.5,11.39,71.28c0,0-65.59-38.02-90.32-57.89-4.6-3.69-7.02-9.45-6.39-15.31l.08-.71c.59-5.51,3.31-10.58,7.59-14.1l23.11-19.02c6.31-5.19,14.66-7.18,22.63-5.39h0c7.11,1.6,13.08,6.37,16.21,12.95Z" fill="#fff"/><path d="M501.82,252.07l.94,4.8c.16.83.36,1.66.59,2.48l6.72,23.92s30.93,89.92-6.57,71.88c0,0-54.17-53.04-73.23-78.39-3.54-4.71-4.47-10.89-2.42-16.41l.25-.67c1.93-5.2,5.82-9.43,10.84-11.79l27.1-12.73c7.39-3.47,15.97-3.34,23.25.37h0c6.49,3.3,11.1,9.41,12.51,16.55Z" fill="#fff"/><path d="M603.73,250.39l-1.19,4.75c-.21.83-.38,1.66-.52,2.5l-4.08,24.51s-10.24,94.54-36.5,62.27c0,0-26.48-71.04-32.95-102.09-1.2-5.77.59-11.75,4.79-15.88l.51-.5c3.96-3.89,9.28-6.06,14.83-6.06h29.94c8.17,0,15.88,3.77,20.89,10.22h0c4.47,5.75,6.05,13.23,4.28,20.3Z" fill="#fff"/><path d="M700.31,292.71l-3.78,3.11c-.66.54-1.29,1.11-1.9,1.7l-17.86,17.27s-64.47,69.9-66.39,28.34c0,0,20.98-72.86,34.25-101.66,2.47-5.35,7.46-9.1,13.3-9.92l.71-.1c5.49-.77,11.07.65,15.52,3.95l24.06,17.81c6.57,4.86,10.52,12.48,10.71,20.64h0c.17,7.28-3.01,14.24-8.63,18.87Z" fill="#fff"/><path d="M778.43,353.53l-4.5,1.91c-.78.33-1.55.7-2.31,1.09l-22.02,11.51s-81.62,48.8-71.69,8.39c0,0,40.74-63.94,61.62-87.81,3.88-4.44,9.73-6.61,15.56-5.75l.71.11c5.48.82,10.43,3.75,13.77,8.18l18.04,23.89c4.92,6.52,6.56,14.94,4.43,22.83h0c-1.89,7.03-6.92,12.8-13.62,15.65Z" fill="#fff"/><path d="M846.45,412.11l-4.56,1.77c-.79.31-1.57.65-2.34,1.02l-22.37,10.81s-83.1,46.23-71.92,6.15c0,0,42.72-62.64,64.33-85.85,4.02-4.31,9.94-6.31,15.74-5.26l.71.13c5.46.99,10.31,4.08,13.51,8.6l17.28,24.44c4.72,6.67,6.09,15.14,3.72,22.96h0c-2.11,6.97-7.31,12.58-14.1,15.22Z" fill="#fff"/><path d="M877.7,505.15l-4.88-.36c-.85-.06-1.7-.09-2.55-.08l-24.85.16s-94.9,6.07-67.59-25.32c0,0,65.47-38.23,94.96-49.91,5.48-2.17,11.68-1.43,16.47,2.01l.58.42c4.5,3.23,7.56,8.11,8.51,13.57l5.12,29.5c1.4,8.05-1,16.29-6.5,22.33h0c-4.9,5.39-12.01,8.22-19.27,7.69Z" fill="#fff"/><path d="M884.85,596.06l-4.53-1.86c-.79-.32-1.59-.61-2.4-.87l-23.67-7.57s-92.09-23.73-56.37-45.08c0,0,74.11-15.99,105.77-17.92,5.88-.36,11.55,2.27,15.03,7.03l.42.58c3.28,4.47,4.66,10.06,3.87,15.54l-4.31,29.63c-1.17,8.08-6.02,15.17-13.12,19.21h0c-6.33,3.6-13.97,4.08-20.7,1.32Z" fill="#fff"/></g></svg>