<?xml version="1.0" encoding="UTF-8"?><svg xmlns="http://www.w3.org/2000/svg" viewBox="0 0 1157 1157"><g id="a"><circle cx="568.91" cy="563.5" r="512" fill="#181616"/></g><g id="b"><path d="M568.91,183.13c-215.36,0-390,174.6-390,390,0,172.32,111.75,318.5,266.7,370.07,19.48,3.62,26.64-8.46,26.64-18.76,0-9.3-.36-40.02-.53-72.61-108.5,23.59-131.39-46.01-131.39-46.01-17.74-45.08-43.3-57.06-43.3-57.06-35.39-24.21,2.67-23.7,2.67-23.7,39.16,2.74,59.78,40.19,59.78,40.19,34.78,59.61,91.23,42.38,113.49,32.42,3.5-25.21,13.61-42.42,24.76-52.16-86.62-9.85-177.69-43.3-177.69-192.73,0-42.58,15.24-77.37,40.19-104.69-4.06-9.82-17.4-49.48,3.77-103.2,0,0,32.74-10.48,107.27,39.98,31.12-8.65,64.48-12.99,97.63-13.14,33.13.15,66.52,4.48,97.69,13.13,74.44-50.46,107.14-39.98,107.14-39.98,21.23,53.71,7.88,93.39,3.83,103.2,25.01,27.32,40.14,62.11,40.14,104.69,0,149.79-91.23,182.77-178.08,192.43,13.99,12.1,26.46,35.84,26.46,72.22,0,52.18-.45,94.18-.45,107.03,0,10.38,7.03,22.54,26.79,18.71,154.87-51.63,266.48-197.76,266.48-370.02,0-215.39-174.62-389.99-390-389.99h0Z" fill="#fff" fill-rule="evenodd"/><path d="M326.62,743.08c-.86,1.94-3.91,2.52-6.68,1.19-2.84-1.27-4.42-3.91-3.51-5.85.84-2,3.89-2.55,6.72-1.21,2.84,1.27,4.46,3.94,3.47,5.88h0ZM342.42,760.7c-1.85,1.72-5.49.92-7.96-1.81-2.56-2.71-3.04-6.35-1.14-8.1,1.92-1.72,5.45-.9,8.01,1.81,2.54,2.75,3.05,6.35,1.1,8.11h0ZM357.8,783.16c-2.39,1.67-6.3.11-8.72-3.36-2.39-3.47-2.39-7.64.06-9.3,2.41-1.67,6.26-.16,8.72,3.27,2.38,3.52,2.38,7.69-.06,9.38h0ZM378.86,804.86c-2.13,2.36-6.69,1.72-10.02-1.49-3.4-3.15-4.35-7.62-2.22-9.97,2.17-2.36,6.75-1.7,10.1,1.49,3.4,3.14,4.43,7.62,2.15,9.96h-.01ZM407.92,817.46c-.95,3.05-5.33,4.44-9.75,3.14-4.41-1.34-7.3-4.91-6.39-8,.9-3.08,5.32-4.52,9.76-3.13,4.41,1.33,7.3,4.88,6.38,7.99ZM439.85,819.79c.11,3.22-3.64,5.88-8.27,5.94-4.67.11-8.45-2.5-8.49-5.66,0-3.25,3.67-5.88,8.33-5.97,4.63-.08,8.43,2.5,8.43,5.68h0ZM469.54,814.74c.56,3.13-2.67,6.35-7.27,7.21-4.52.84-8.72-1.11-9.3-4.22-.56-3.22,2.73-6.44,7.25-7.27,4.61-.79,8.74,1.1,9.33,4.28h0Z" fill="#181616"/></g></svg>