<?xml version="1.0" encoding="UTF-8"?><svg xmlns="http://www.w3.org/2000/svg" viewBox="0 0 1157 1157"><g id="a"><circle cx="568.91" cy="563.5" r="512" fill="#fff100"/></g><g id="b"><path d="M968.85,698.02v-38.83c0-7.22-12.14-14.1-33.94-20.31l.53-48.33c-.03-74.54-23.14-147.24-66.18-208.1-43.23-61.13-104.17-107.54-174.6-132.96l-1.56-9.69c-.81-5.19-3.07-10.04-6.54-13.99-3.48-3.96-8.02-6.86-13.08-8.36-67.7-19.68-139.6-19.68-207.3,0-5.09,1.49-9.63,4.38-13.13,8.34-3.48,3.94-5.76,8.79-6.57,13.98l-1.5,9.03c-70.86,25.18-132.24,71.57-175.81,132.85-43.36,61.02-66.67,134.01-66.69,208.87v48.53c-21.49,6.19-33.48,12.99-33.48,20.16v38.83c-.35,2.28.15,4.61,1.4,6.54,10.72-7.92,23.01-13.47,36.04-16.28,33.25-8.02,67.03-13.63,101.09-16.78,19.29-2.16,38.58,4.01,53.04,16.95,26.41,23.89,60.76,37.1,96.38,37.08h223.96c35.61.02,69.96-13.21,96.36-37.11,14.44-13.01,33.74-19.25,53.06-17.14,34.05,3.14,67.82,8.73,101.07,16.71,12.35,2.34,24.02,7.4,34.16,14.83.56.56,1.25,1.06,1.73,1.59,1.26-1.9,1.8-4.18,1.54-6.44h0Z" fill="#fff"/><path d="M361.11,616.3c-.3-8.94-.46-17.89-.48-26.83.11-134.98,31.95-256.04,84.39-340.58-70.85,25.18-132.24,71.55-175.81,132.83-43.36,61.01-66.67,133.98-66.72,208.83v48.53c52.09-12.31,105.18-19.93,158.63-22.78h0Z" fill="#d8d8d8"/><path d="M935.41,590.55c.07-84.4-29.54-166.13-83.64-230.9,23.48,74.31,35.18,151.83,34.68,229.75,0,13.16-.35,26.14-.96,39.06,16.61,2.55,33.07,6.02,49.3,10.39l.61-48.31h.02Z" fill="#d8d8d8"/><path d="M931.41,688.19c-33.25-8.02-67.04-13.63-101.09-16.78-19.3-2.13-38.6,4.06-53.05,17.04-26.41,23.9-60.76,37.12-96.38,37.09h-223.88c-35.59.01-69.92-13.2-96.32-37.08-14.43-13.03-33.74-19.28-53.06-17.18-34.06,3.15-67.84,8.75-101.09,16.76-13.01,2.84-25.28,8.38-36.01,16.27,17,25.79,188.96,52.85,398.49,52.85s381.44-27.16,398.47-52.83c-.59-.51-1.25-1.01-1.75-1.58-10.26-7.26-21.97-12.23-34.33-14.57Z" fill="#d8d8d8"/><path d="M559.97,316.71l-85.75,144.7,85.75,52.77v-197.48h0Z" fill="#0a0a0a"/><path d="M559.97,316.72v197.37l85.73-52.67-85.73-144.7ZM559.97,542.76v68.82c1.6-2.28,85.73-121.57,85.73-121.63l-85.73,52.82h0Z" fill="#4b4d4d"/><path d="M559.97,542.71l-85.75-52.74,85.75,121.58v-68.88.04Z" fill="#0a0a0a"/></g></svg>