<?xml version="1.0" encoding="UTF-8"?><svg xmlns="http://www.w3.org/2000/svg" viewBox="0 0 1157 1157"><g id="a"><circle cx="568.91" cy="563.5" r="512" fill="#141414"/></g><g id="b"><path d="M806.03,412.59h-180.9l-42.62,301.92h86.6l10.24-73.14h98.49c88.94,0,133.31-35.69,143.35-112.05,10.43-78.7-26.82-116.73-115.17-116.73h0ZM833.53,524.05c-3.51,32.47-22.14,46.61-59.39,46.61h-84.74l12.29-87.28h88.64c33.74-.1,46.42,11.41,43.2,40.67h0ZM411.67,405.47c-117.9,0-179.73,49.54-194.26,155.64-14.82,108.54,36.08,160.42,157,160.42s179.43-49.54,193.96-155.64c14.73-108.54-35.79-160.42-156.71-160.42h0ZM480.32,561.21c-8,59.88-38.13,86.69-101.13,86.69-59.1,0-81.33-23.6-73.63-82.01,8-60.17,38.71-86.69,101.13-86.69s81.23,23.89,73.63,82.01Z" fill="#fafaf9"/></g></svg>