<?xml version="1.0" encoding="UTF-8"?><svg xmlns="http://www.w3.org/2000/svg" xmlns:xlink="http://www.w3.org/1999/xlink" viewBox="0 0 1157 1157"><defs><linearGradient id="b" x1="56.91" y1="563.5" x2="1080.91" y2="563.5" gradientUnits="userSpaceOnUse"><stop offset="0" stop-color="#4c65fe"/><stop offset="1" stop-color="#4c65fe"/></linearGradient><clipPath id="d"><rect x="168.91" y="163.5" width="800" height="800" fill="none"/></clipPath><linearGradient id="e" x1="-137.7" y1="1890.8" x2="337.88" y2="1756.45" gradientTransform="translate(564 2441) scale(1 -1)" gradientUnits="userSpaceOnUse"><stop offset="0" stop-color="#fff"/><stop offset="1" stop-color="#fff"/><stop offset="1" stop-color="#fff"/></linearGradient></defs><g id="a"><circle cx="568.91" cy="563.5" r="512" fill="url(#b)"/></g><g id="c"><g clip-path="url(#d)"><path d="M906.65,606.58c27.01-60.55-106.49-229.72-234.02-300.2-80.39-54.6-164.15-47.1-181.11-23.12-37.23,52.61,123.28,97.19,230.63,149.21-23.08,10.06-44.82,28.11-57.61,51.2-40.02-43.86-127.86-81.62-230.92-51.2-69.46,20.5-127.18,68.83-149.49,141.83-5.42-2.42-11.42-3.76-17.74-3.76-24.15,0-43.72,19.65-43.72,43.89s19.57,43.89,43.72,43.89c4.48,0,18.47-3.01,18.47-3.01l223.63,1.63c-89.43,142.41-160.11,163.23-160.11,187.9s67.63,17.99,93.02,8.79c121.55-44.03,252.11-181.24,274.51-220.73,94.08,11.78,173.14,13.18,190.75-26.31Z" fill="url(#e)"/><path d="M488.83,310.29c7.55-15.1,58.6-16.79,127.92,15.99,50.88,24.06,105.06,77.76,108.2,91.07,1.37,5.79,2.16,13.17-2.81,15.14,0,0-.01,0-.02,0h.02c-88.51-42.9-213.16-80.74-233.31-122.19Z" fill="#bcbcbc"/><path d="M459.76,522.89c74.23,0,106.17,24.11,131.62,69.41,18.13,32.28,14.11,83.33-5.09,117.81,18,4.48,33.83,9.42,47.85,14.79-22.74,21.25-48.76,43.32-76.43,63.55-37.68-9.65-71.92-18.82-123.84-32.17,22.19-24.31,47.54-56.26,74.61-99.36l-200.72-1.46c-.7-8.14-.9-17-.7-26.67,1.95-92.11,111.87-105.91,152.7-105.91Z" fill="#d3d3cf"/><path d="M281.44,646c8.2,69.97,47.82,97.39,128.77,105.5s127.38,2.68,189.21,8.32c51.63,4.72,97.73,31.12,114.83,22,15.4-8.21,6.78-37.89-13.82-56.93-26.7-24.68-63.64-41.84-128.66-47.92,12.96-35.61,9.33-85.54-10.8-112.7-29.1-39.28-82.8-57.03-150.77-49.28-71.01,8.11-139.06,43.2-128.77,131.01Z" fill="#e5e5e5"/></g></g></svg>