<?xml version="1.0" encoding="UTF-8"?><svg xmlns="http://www.w3.org/2000/svg" viewBox="0 0 1157 1157"><g id="a"><circle cx="568.91" cy="563.5" r="512"/></g><g id="b"><path d="M562.24,154.65c-1.49.87-7.71,9.8-13.85,19.86-15.39,25.27-15.56,25.28-36.23,3.52-13.45-14.15-16.7-16.74-21.03-16.71-2.82.01-6.38.97-7.92,2.13-1.53,1.15-5.87,10.34-9.64,20.41-8.63,23.08-9.04,23.82-13.83,24.75-2.95.56-8.61-2.6-22.21-12.36-10.04-7.21-19.88-13.11-21.87-13.11-8.28,0-10.61,4.53-14.56,28.21-5,30.12-4.84,30.02-31.99,17.69-10.97-4.98-21.35-9.05-23.1-9.05s-5.08,1.89-7.37,4.19q-4.18,4.18-3.05,27.23l1.14,23.05-4.36,2.33c-3.86,2.06-6.52,1.81-23.62-2.23-22.32-5.27-27.03-5.13-31.55.96l-3.31,4.44,4.44,19.01c2.44,10.45,4.78,20.52,5.22,22.36.43,1.84-.32,4.78-1.67,6.54-2.23,2.87-4.6,3.14-25.26,2.82-34.97-.55-36.95,2.45-22.51,33.99,4.6,10,8.36,19.1,8.36,20.19,0,5.76-4.6,7.86-24.33,11.08-11.04,1.8-20.64,3.27-21.33,3.27s-2.76,1.51-4.6,3.35c-6.01,6-4.3,11.65,9.32,30.87q16.97,23.95-11.09,34.76c-31.88,12.2-32.52,15.2-8.25,38.22,22.6,21.44,22.64,21.13-2.96,37.22-19.39,12.17-19.69,12.47-20.18,19.07-.6,8.03-.46,8.18,22.69,22.32,22.89,13.98,22.89,14.4.43,35.65-24.16,22.85-23.42,26.19,8.48,38.22,27.88,10.52,27.91,10.64,10.91,34.59-9.63,13.58-12.7,19.23-12.7,23.42,0,7.84,4.08,9.84,28.48,13.94,20.55,3.46,25.13,5.5,25.13,11.16,0,1.17-3.77,10.34-8.38,20.37-14.34,31.23-12.7,33.83,21.23,33.83,31.61,0,30.77-.96,23.96,27.54-5.13,21.48-5.21,25.6-.56,30.23,3.55,3.57,10.26,3.17,31.23-1.85,16.02-3.82,18.83-4.08,22.55-2.1l4.24,2.27-1.14,23.05q-1.14,23.04,3.05,27.24c2.3,2.3,5.67,4.18,7.47,4.18s12.2-4.05,23.11-9c27.06-12.29,26.89-12.39,31.89,17.63,3.96,23.8,6.26,28.21,14.71,28.21,2.1,0,11.73-5.64,21.42-12.56,17.02-12.14,21.43-14.04,25.96-11.16,1.17.74,5.71,10.71,10.08,22.16,6.43,16.83,8.79,21.22,12.37,22.93,6.81,3.26,11.03.64,27.05-16.8,19.34-21.07,20.14-20.97,35.92,4.62,17.44,28.25,21.96,28.19,39.83-.57,15.4-24.78,15.22-24.76,36.04-3.01,13.83,14.43,16.78,16.74,21.44,16.74,2.98,0,6.53-1.12,7.89-2.49,1.37-1.37,5.9-11.45,10.05-22.42,4.16-10.97,8.47-20.52,9.59-21.23,4.41-2.8,8.96-.83,25.96,11.23,10,7.11,19.42,12.56,21.65,12.56,8.31,0,11.31-5.9,14.76-29.07,2.95-19.76,3.55-21.66,7.44-23.63,3.82-1.94,6.12-1.28,24.05,6.86,10.91,4.94,21.31,8.99,23.11,8.99s5.23-1.94,7.59-4.31l4.31-4.3-1.18-22.11c-1.14-21.1-1.03-22.24,2.33-25.28,3.46-3.13,3.82-3.12,23.18,1.31,23.44,5.35,27.82,5.5,32.22,1.09,4.3-4.3,4.26-5.25-1.63-30.08-6.6-27.86-7.49-26.87,24.24-26.87,21.64,0,24.05-.31,26.8-3.35,4.6-5.09,3.51-10.91-5.75-30.65-4.67-9.94-8.46-18.98-8.43-20.1.15-5.86,4.76-7.87,26.07-11.33,13.04-2.11,22.78-4.56,24.55-6.16,5.92-5.34,3.74-12.3-9.77-31.25-16.94-23.75-16.86-23.97,10.25-33.97,32.47-11.97,33.4-15.95,9.1-39.05-22.51-21.39-22.52-21.27,2.14-36.4,29.81-18.29,29.85-22.42.53-40.62-25.22-15.65-25.2-15.43-2.6-36.89,24.24-23.04,23.59-26.05-8.3-38.25-28.14-10.77-28.23-11.03-11.13-34.5,10.18-13.98,12.71-18.62,12.71-23.41,0-8.37-3.76-10.25-28.45-14.24-20.62-3.33-25.16-5.35-25.16-11.22,0-1.12,3.77-10.09,8.38-19.96,9.02-19.32,10.29-27.06,5.18-31.68-2.74-2.48-6.41-2.84-26.08-2.51-20.57.35-23.2.05-26.05-2.82-3.12-3.13-3.08-3.57,1.78-23.89,5.97-24.89,6-25.49,1.09-30.1-4.98-4.68-8.09-4.6-30.95.78-16.65,3.92-19.41,4.19-23.19,2.16l-4.3-2.31,1.19-22.97,1.19-22.96-4.3-4.3c-2.37-2.37-5.71-4.3-7.46-4.3s-12.08,4.1-22.98,9.12c-18.2,8.37-20.15,8.93-24.09,6.87-3.92-2.05-4.58-4.08-7.93-24.55-3.87-23.68-6.26-28.29-14.67-28.29-1.99,0-11.88,5.93-21.97,13.18-16.57,11.9-18.79,13.03-22.92,11.59-3.42-1.19-5.41-3.78-7.83-10.25-1.8-4.76-5.24-13.93-7.66-20.37-4.89-13-7.61-15.92-14.93-15.92-4.08,0-7.78,2.94-21.03,16.7q-20.83,21.64-36.23-3.49c-6.12-10.04-12.52-19.01-14.22-19.92-3.83-2.06-8.34-2.05-11.86.01M581.22,230.31c18.15,12.91,8.5,43.28-13.75,43.28s-32.47-26.02-17.05-40.78c8.7-8.34,21.18-9.36,30.81-2.5M558.41,310.51c11.9,4.52,16.78,1.81,43.94-24.37l20.4-19.69,8.64,1.15c27.09,3.59,80.97,27.25,111.93,49.16,28.45,20.14,66.25,61.14,82.37,89.33l3.44,6.04-15.26,34.4c-8.4,18.92-15.27,36.38-15.27,38.81,0,5.63,3.69,14.54,7.25,17.48,1.5,1.25,15.76,8.11,31.67,15.25l28.92,12.99,1.14,7.36c1.47,9.59,1.67,33.13.33,39.82l-1.05,5.23h-16.51c-19.15,0-17.67-1.71-18.71,21.78-.76,17.03-4.87,26.45-14.23,32.54-15.25,9.95-40.43,8.14-51.11-3.66-1.64-1.81-4.83-10.93-7.09-20.26-6.6-27.27-15.47-42.58-33.3-57.48-5.63-4.7-10.23-9.09-10.23-9.76s6.19-5.87,13.75-11.56c27.56-20.78,43.41-44.96,45.14-68.91,3.33-45.7-33.08-88.28-87.22-102.09-12.84-3.27-18.32-3.37-177.14-3.37-90.14,0-163.9-.59-163.9-1.31,0-1.69,20.03-21.13,31.83-30.88,32.41-26.79,74.5-47.87,118.1-59.13l15.07-3.91,21.42,21.72c11.79,11.95,23.34,22.44,25.66,23.32M288.69,450.25c9.87,6.46,13.92,22.7,8.08,32.46-9.01,15.11-31.84,15.74-40.87,1.14-13.12-21.22,12.15-47.13,32.79-33.6M870.12,451.08c25.82,15.74,5.81,54.47-21.83,42.24-18.45-8.16-19.05-33.38-.99-42.59,7.53-3.85,16.18-3.71,22.83.35M364.76,547.46v96.32h-85.16l-3.37-14.65c-6.64-28.86-9.44-58.71-7.77-83.16l1.17-17.18,29.27-13.13c18.37-8.23,30.18-14.51,31.7-16.83,6.66-10.16,6.03-17.41-3.32-38.05l-4.36-9.63h41.83v96.32M609.89,455.34c18.23,4.75,27.86,14.4,27.89,27.93.01,9.93-4.91,16.16-17.12,21.67-8.64,3.91-10.02,4.01-64.53,4.54l-55.7.54v-57.2h49.9c38.98,0,52.02.55,59.56,2.52M591.07,593.55c9.04,2.51,19.72,10.36,25.2,18.52,5.76,8.57,9.12,19.72,17.1,56.66,6.73,31.22,11.07,41.42,23.21,54.71,15.04,16.45,11.54,15.81,86.66,15.81,35.97,0,65.39.58,65.39,1.28,0,1.26-24.77,30.55-25.84,30.55-.31,0-13.25-2.71-28.75-6.02-43.79-9.35-45.37-8.25-55.42,38.68l-6.46,30.15-5.84,2.87c-9.73,4.81-41.38,14.7-57.78,18.08-27.11,5.58-56.61,7.46-82.53,5.27-44.2-3.75-102.73-20.9-105.02-30.78-.48-2.1-3.43-15.67-6.53-30.16-3.11-14.49-6.89-28.24-8.4-30.55-7.25-11.06-14.86-11.73-48.39-4.32-12.7,2.82-23.78,5.1-24.62,5.1-1.59,0-25.16-27.25-25.16-29.08,0-.58,55.97-1.24,124.38-1.47l124.37-.42.45-44.18c.32-31.2-.12-44.87-1.47-46.49-1.51-1.82-9.53-2.3-38.55-2.3h-36.65v-53.61h42.3c23.25.02,45.02.78,48.34,1.7M399.43,794.47c19.78,12.06,10.29,43.63-13.1,43.6-23.98,0-32.88-31.3-12.44-43.77,6.77-4.12,18.65-4.04,25.54.17M761.61,795.79c9.7,7.11,12.92,21.89,6.92,31.74-15.77,25.87-55.22,5.31-42.05-21.92,6.48-13.37,23.69-18.19,35.13-9.82" fill="#fff"/></g></svg>