<?xml version="1.0" encoding="UTF-8"?><svg xmlns="http://www.w3.org/2000/svg" viewBox="0 0 1500 1157"><g id="a"><circle cx="750" cy="563.5" r="512" fill="#ad1f2c"/></g><g id="b"><path d="M1042.25,492.4s12.46-27.5-6.45-27.5-47.7,1.72-48.98,13.75c-1.29,12.03,36.52,38.67,36.52,38.67,0,0-21.05,10.74-51.99-14.18-30.94-24.92-45.12-30.94-64.45-25.35-19.34,5.59-73.05-13.32-182.62,65.31l39.53,48.13s116.93-100.8,199.24-23.53c5.92,5.56,10.95,11.99,14.89,19.08,13.3,23.89,35.14,82-32.55,127.73-8.61,5.81-18.12,10.21-28.19,12.76-29.78,7.56-94.93,13.05-159.85-54.4,0,0-183.48,165.43-322.27-3.44l21.91-16.76s56.72,59.3,146.95,40.39c0,0,84.22-38.67,107.85-64.45l-45.55-51.56s-87.23,64.02-165,43.83c0,0-79.84-26.31-72.27-100.35,3.18-31.13,21.27-58.71,47.79-75.33,33.51-21,90.46-37.23,163.27,16.26l37.81,33.95s104.42-82.5,222.15-81.21c0,0,45.98-25.78,108.71-6.45,0,0,17.19-2.15,22.77,10.74,0,0,43.4,15.04,40.82,38.24,0,0,3.01,16.76-30.08,35.66Z" fill="#fff"/><path d="M1042.68,507.01s-19.34,33.52-3.87,41.25c15.47,7.73,14.18-13.75,11.17-28.79-3.01-15.04-7.3-12.46-7.3-12.46Z" fill="#fff"/><path d="M806.78,635.49s73.48-66.6,115.59-27.07c42.11,39.53-35.23,110.86-115.59,27.07Z" fill="#ad1f2c"/><path d="M618.02,526.52c-11.38-11.12-73.09-66.99-117.74-18.18-5.28,5.77-7.41,13.77-5.48,21.35,5.41,21.29,28.07,57.38,122.85.04,1.14-.69,1.33-2.27.37-3.2Z" fill="#ad1f2c"/><polygon points="435.53 635.19 420.92 643.65 426.07 651.81 442.83 639.78 435.53 635.19" fill="#fff"/><polygon points="444.98 643.5 428.49 653.53 431.87 663.42 453.57 649.24 444.98 643.5" fill="#fff"/><polygon points="402.44 598.96 418.34 638.49 431.87 629.04 402.44 598.96" fill="#fff"/><path d="M983.81,428.48s24.49-1.93,30.62,8.06c0,0-23.2,16.76-30.62-8.06Z" fill="#ad1f2c"/></g></svg>