<?xml version="1.0" encoding="UTF-8"?><svg xmlns="http://www.w3.org/2000/svg" xmlns:xlink="http://www.w3.org/1999/xlink" viewBox="0 0 1157 1157"><defs><linearGradient id="b" x1="56.91" y1="563.5" x2="1080.91" y2="563.5" gradientUnits="userSpaceOnUse"><stop offset="0" stop-color="#00ffa3"/><stop offset="1" stop-color="#dc1fff"/></linearGradient></defs><g id="a"><circle cx="568.91" cy="563.5" r="512" fill="url(#b)"/></g><g id="c"><path d="M341.82,689.71c3.98-3.98,9.46-6.31,15.27-6.31h526.69c9.62,0,14.44,11.62,7.63,18.42l-104.04,104.04c-3.98,3.98-9.46,6.31-15.27,6.31H245.41c-9.62,0-14.44-11.62-7.63-18.42l104.04-104.04Z" fill="#fff"/><path d="M341.82,301.25c4.15-3.98,9.62-6.31,15.27-6.31h526.69c9.62,0,14.44,11.62,7.63,18.42l-104.04,104.04c-3.98,3.98-9.46,6.31-15.27,6.31H245.41c-9.62,0-14.44-11.62-7.63-18.42l104.04-104.04Z" fill="#fff"/><path d="M787.36,494.23c-3.98-3.98-9.46-6.31-15.27-6.31H245.41c-9.62,0-14.44,11.62-7.63,18.42l104.04,104.04c3.98,3.98,9.46,6.31,15.27,6.31h526.69c9.62,0,14.44-11.62,7.63-18.42l-104.04-104.04Z" fill="#fff"/></g></svg>