<?xml version="1.0" encoding="UTF-8"?><svg xmlns="http://www.w3.org/2000/svg" viewBox="0 0 1157 1157"><g id="a"><circle cx="568.91" cy="563.5" r="512" fill="#f50db4"/></g><g id="b"><path d="M769.14,321.97c.93-16.36,3.16-27.16,7.64-37.02,1.77-3.9,3.43-7.1,3.69-7.1s-.51,2.88-1.71,6.4c-3.26,9.57-3.79,22.65-1.55,37.88,2.85,19.32,4.46,22.1,24.95,42.97,9.61,9.79,20.79,22.13,24.84,27.43l7.37,9.64-7.37-6.89c-9.01-8.42-29.73-24.85-34.31-27.19-3.07-1.57-3.52-1.55-5.42.33-1.74,1.73-2.11,4.33-2.36,16.62-.38,19.15-3,31.45-9.32,43.74-3.42,6.65-3.96,5.23-.86-2.28,2.31-5.6,2.55-8.07,2.53-26.61-.04-37.26-4.47-46.22-30.51-61.56-6.59-3.89-17.46-9.49-24.15-12.46-6.69-2.97-12-5.55-11.8-5.74.74-.73,26.12,6.65,36.34,10.57,15.2,5.83,17.71,6.58,19.56,5.88,1.24-.47,1.84-4.06,2.44-14.62Z" fill="#fff"/><path d="M448,267.77c-9.02-1.39-9.4-1.55-5.16-2.2,8.13-1.24,27.33.45,40.56,3.58,30.89,7.3,59,26.01,89,59.23l7.97,8.83,11.4-1.82c48.04-7.68,96.91-1.58,137.78,17.2,11.24,5.17,28.97,15.45,31.19,18.09.71.84,2,6.26,2.88,12.05,3.04,20.02,1.52,35.36-4.64,46.82-3.35,6.24-3.54,8.21-1.28,13.55,1.8,4.26,6.81,7.41,11.77,7.4,10.16-.01,21.09-16.34,26.16-39.07l2.01-9.03,3.99,4.49c21.86,24.64,39.04,58.24,41.99,82.16l.77,6.24-3.68-5.67c-6.32-9.75-12.68-16.4-20.82-21.75-14.67-9.65-30.18-12.94-71.26-15.09-37.1-1.95-58.1-5.1-78.92-11.85-35.43-11.49-53.28-26.79-95.36-81.7-18.69-24.39-30.24-37.88-41.74-48.75-26.11-24.69-51.77-37.64-84.61-42.71Z" fill="#fff"/><path d="M465.51,385.88c-18.3-25.07-29.63-63.49-27.18-92.22l.76-8.89,4.17.76c7.82,1.42,21.32,6.41,27.63,10.23,17.34,10.47,24.84,24.26,32.48,59.66,2.24,10.37,5.17,22.1,6.52,26.08,2.17,6.4,10.39,21.33,17.07,31.03,4.81,6.99,1.61,10.3-9.02,9.34-16.24-1.46-38.24-16.56-52.43-35.99Z" fill="#fff"/><path d="M746.92,572.42c-85.54-34.26-115.67-63.99-115.67-114.16,0-7.38.26-13.42.57-13.42s3.62,2.44,7.35,5.42c17.35,13.84,36.77,19.75,90.55,27.55,31.64,4.59,49.45,8.3,65.88,13.72,52.21,17.22,84.52,52.17,92.22,99.78,2.24,13.83.93,39.77-2.7,53.44-2.87,10.8-11.61,30.26-13.93,31.01-.64.21-1.27-2.24-1.44-5.58-.88-17.88-9.96-35.28-25.21-48.31-17.34-14.82-40.64-26.62-97.61-49.43Z" fill="#fff"/><path d="M686.86,586.65c-1.07-6.34-2.93-14.44-4.13-18l-2.18-6.47,4.05,4.53c5.61,6.26,10.04,14.28,13.8,24.95,2.87,8.15,3.19,10.57,3.17,23.81-.02,13-.38,15.72-3.03,23.06-4.18,11.56-9.36,19.76-18.05,28.56-15.63,15.82-35.72,24.58-64.71,28.21-5.04.63-19.73,1.69-32.64,2.36-32.54,1.68-53.96,5.16-73.2,11.88-2.77.97-5.24,1.56-5.49,1.31-.78-.77,12.32-8.54,23.15-13.72,15.26-7.31,30.45-11.3,64.49-16.94,16.81-2.79,34.18-6.16,38.59-7.51,41.64-12.7,63.04-45.46,56.19-86.02Z" fill="#fff"/><path d="M726.08,655.91c-11.36-24.3-13.98-47.76-7.75-69.64.67-2.34,1.74-4.25,2.38-4.25s3.33,1.44,5.96,3.2c5.24,3.51,15.74,9.41,43.73,24.59,34.92,18.94,54.83,33.6,68.37,50.35,11.86,14.67,19.2,31.38,22.73,51.76,2,11.54.83,39.31-2.15,50.94-9.39,36.65-31.21,65.43-62.33,82.23-4.56,2.46-8.65,4.48-9.1,4.49-.44,0,1.22-4.19,3.69-9.34,10.47-21.77,11.66-42.94,3.75-66.51-4.85-14.43-14.73-32.04-34.68-61.8-23.2-34.6-28.89-43.81-34.59-56.01Z" fill="#fff"/><path d="M404.76,787.03c31.74-26.66,71.24-45.6,107.22-51.41,15.51-2.51,41.34-1.51,55.69,2.14,23.02,5.86,43.6,18.98,54.31,34.61,10.46,15.28,14.95,28.59,19.63,58.22,1.84,11.68,3.85,23.42,4.46,26.08,3.51,15.35,10.34,27.62,18.81,33.79,13.44,9.79,36.6,10.4,59.37,1.56,3.87-1.5,7.22-2.54,7.46-2.3.83.82-10.64,8.45-18.73,12.47-10.88,5.41-19.54,7.5-31.04,7.5-20.86,0-38.17-10.55-52.62-32.07-2.84-4.24-9.24-16.92-14.2-28.19-15.26-34.61-22.79-45.15-40.5-56.69-15.41-10.04-35.3-11.84-50.25-4.54-19.64,9.58-25.13,34.55-11.06,50.37,5.59,6.29,16.02,11.72,24.55,12.77,15.95,1.97,29.66-10.1,29.66-26.12,0-10.4-4.02-16.34-14.14-20.88-13.82-6.2-28.68,1.05-28.61,13.96.03,5.51,2.44,8.96,7.99,11.46,3.56,1.6,3.64,1.73.74,1.13-12.68-2.62-15.65-17.82-5.46-27.92,12.24-12.12,37.56-6.77,46.25,9.77,3.65,6.95,4.08,20.79.89,29.14-7.13,18.7-27.9,28.54-48.98,23.18-14.35-3.64-20.19-7.59-37.5-25.31-30.06-30.8-41.74-36.77-85.08-43.5l-8.31-1.29,9.45-7.94Z" fill="#fff"/><path d="M263.7,235.74c100.4,121.2,169.55,171.2,177.24,181.77,6.34,8.72,3.96,16.56-6.91,22.71-6.04,3.42-18.47,6.88-24.69,6.88-7.04,0-9.45-2.7-9.45-2.7-4.08-3.85-6.38-3.18-27.33-40.17-29.09-44.9-53.44-82.14-54.1-82.77q-1.54-1.44,51.14,92.29c8.51,19.53,1.69,26.69,1.69,29.48,0,5.66-1.55,8.63-8.57,16.42-11.7,12.98-16.93,27.56-20.7,57.75-4.23,33.84-16.13,57.73-49.11,98.64-19.3,23.95-22.46,28.33-27.33,37.98-6.14,12.15-7.82,18.96-8.51,34.31-.72,16.23.68,26.71,5.67,42.22,4.36,13.58,8.92,22.55,20.56,40.49,10.05,15.48,15.83,26.98,15.83,31.48,0,3.58.69,3.59,16.26.09,37.26-8.37,67.52-23.09,84.54-41.13,10.53-11.17,13-17.33,13.09-32.63.05-10.01-.3-12.1-3.02-17.86-4.43-9.37-12.49-17.16-30.25-29.24-23.28-15.83-33.22-28.57-35.97-46.09-2.25-14.38.36-24.52,13.24-51.36,13.33-27.79,16.63-39.63,18.87-67.63,1.44-18.09,3.44-25.23,8.67-30.96,5.45-5.97,10.36-8,23.85-9.83,21.99-2.99,36-8.65,47.51-19.2,9.99-9.15,14.17-17.97,14.81-31.25l.49-10.06-5.58-6.47c-20.21-23.44-215.44-191.57-216.69-191.57-.27,0,6.38,8.29,14.78,18.42ZM310.46,706.68c4.57-8.05,2.14-18.4-5.5-23.45-7.22-4.78-18.44-2.53-18.44,3.7,0,1.9,1.06,3.28,3.44,4.5,4.01,2.05,4.3,4.36,1.15,9.07-3.19,4.77-2.94,8.97.73,11.82,5.9,4.6,14.26,2.07,18.63-5.64Z" fill="#fff" fill-rule="evenodd"/><path d="M485.07,481.15c-10.32,3.15-20.36,14.04-23.47,25.45-1.89,6.96-.82,19.18,2.02,22.95,4.59,6.09,9.02,7.7,21.03,7.61,23.52-.16,43.96-10.19,46.33-22.73,1.95-10.28-7.03-24.52-19.4-30.78-6.38-3.23-19.95-4.51-26.52-2.5ZM512.56,502.53c3.63-5.12,2.04-10.66-4.13-14.41-11.74-7.13-29.51-1.23-29.51,9.8,0,5.49,9.26,11.49,17.75,11.49,5.65,0,13.38-3.35,15.88-6.88Z" fill="#fff" fill-rule="evenodd"/></g></svg>